<svg width="32" height="32" viewBox="0 0 32 32" fill="none" xmlns="http://www.w3.org/2000/svg">
<path d="M16.0004 2.16675C22.1674 2.16692 27.1664 7.16667 27.1664 13.3337C27.1663 14.9429 26.4443 16.6909 25.4281 18.3689C24.405 20.0582 23.0483 21.7349 21.7035 23.2126C20.3569 24.6923 19.0118 25.9844 18.0043 26.906C17.5002 27.3671 17.0794 27.7358 16.7845 27.99C16.6371 28.1171 16.5213 28.216 16.4418 28.283C16.402 28.3164 16.3708 28.3418 16.35 28.3591C16.3398 28.3676 16.332 28.3742 16.3265 28.3787C16.3238 28.3809 16.3212 28.3833 16.3197 28.3845L16.3177 28.3865L16.0004 28.6472L15.682 28.3865V28.3855L15.6801 28.3845C15.6786 28.3833 15.676 28.3809 15.6732 28.3787C15.6678 28.3742 15.66 28.3676 15.6498 28.3591C15.6289 28.3418 15.5978 28.3164 15.558 28.283C15.4784 28.216 15.3626 28.1171 15.2152 27.99C14.9203 27.7358 14.4995 27.3671 13.9955 26.906C12.9881 25.9845 11.6437 24.6921 10.2972 23.2126C8.95245 21.7349 7.59578 20.0583 6.57263 18.3689C5.55632 16.6908 4.83347 14.943 4.83337 13.3337C4.83337 7.16656 9.83319 2.16675 16.0004 2.16675ZM16.0004 11.1667C14.8037 11.1667 13.8334 12.1371 13.8334 13.3337C13.8335 14.5302 14.8039 15.4998 16.0004 15.4998C17.1967 15.4996 18.1662 14.5301 18.1664 13.3337C18.1664 12.1372 17.1968 11.1669 16.0004 11.1667Z" fill="#E69600" stroke="black"/>
</svg>
