<svg width="33" height="33" viewBox="0 0 33 33" fill="none" xmlns="http://www.w3.org/2000/svg">
<path fill-rule="evenodd" clip-rule="evenodd" d="M27.6169 14.2594C27.6169 20.1504 16.9502 28.926 16.9502 28.926C16.9502 28.926 6.28357 20.1504 6.28357 14.2594C6.28357 8.36834 11.0592 3.59271 16.9502 3.59271C22.8413 3.59271 27.6169 8.36834 27.6169 14.2594ZM16.9502 16.926C18.423 16.926 19.6169 15.7321 19.6169 14.2594C19.6169 12.7866 18.423 11.5927 16.9502 11.5927C15.4775 11.5927 14.2836 12.7866 14.2836 14.2594C14.2836 15.7321 15.4775 16.926 16.9502 16.926Z" fill="#C3C5C7"/>
<path fill-rule="evenodd" clip-rule="evenodd" d="M16.1031 29.9557L16.9502 28.926L17.7973 29.9557L16.9502 30.6526L16.1031 29.9557ZM16.9502 28.926C16.9502 28.926 6.28353 20.1504 6.28353 14.2593C6.28353 8.3683 11.0592 3.59267 16.9502 3.59267C22.8412 3.59267 27.6169 8.3683 27.6169 14.2593C27.6169 20.1504 16.9502 28.926 16.9502 28.926ZM17.7973 29.9557C17.7973 29.9557 17.7973 29.9557 16.9502 28.926C16.1031 29.9557 16.1031 29.9557 16.1031 29.9557L16.0927 29.9471L16.0671 29.9258C16.045 29.9075 16.0132 29.8809 15.9721 29.8464C15.8901 29.7774 15.7714 29.6767 15.6212 29.5473C15.321 29.2884 14.8944 28.9139 14.3836 28.4466C13.3636 27.5136 11.9993 26.2031 10.6307 24.6992C9.26684 23.2005 7.87144 21.4801 6.80972 19.727C5.76584 18.0034 4.9502 16.0965 4.9502 14.2593C4.9502 7.63192 10.3228 2.25934 16.9502 2.25934C23.5776 2.25934 28.9502 7.63192 28.9502 14.2593C28.9502 16.0965 28.1346 18.0034 27.0907 19.727C26.029 21.4801 24.6335 23.2005 23.2697 24.6992C21.9011 26.2031 20.5368 27.5136 19.5168 28.4466C19.006 28.9139 18.5794 29.2884 18.2792 29.5473C18.129 29.6767 18.0103 29.7774 17.9282 29.8464C17.8872 29.8809 17.8554 29.9075 17.8333 29.9258L17.8077 29.9471L17.7973 29.9557ZM19.6169 14.2593C19.6169 15.7321 18.423 16.926 16.9502 16.926C15.4774 16.926 14.2835 15.7321 14.2835 14.2593C14.2835 12.7866 15.4774 11.5927 16.9502 11.5927C18.423 11.5927 19.6169 12.7866 19.6169 14.2593Z" fill="black"/>
</svg>
