<svg width="32" height="32" viewBox="0 0 32 32" fill="none" xmlns="http://www.w3.org/2000/svg">
<path d="M16.0004 2.16663C22.1674 2.1668 27.1664 7.16655 27.1664 13.3336C27.1663 14.9428 26.4443 16.6907 25.4281 18.3688C24.405 20.0581 23.0483 21.7348 21.7035 23.2125C20.3569 24.6922 19.0118 25.9843 18.0043 26.9059C17.5002 27.367 17.0794 27.7356 16.7845 27.9899C16.6371 28.117 16.5213 28.2159 16.4418 28.2828C16.402 28.3163 16.3708 28.3417 16.35 28.359C16.3398 28.3675 16.332 28.3741 16.3265 28.3785C16.3238 28.3808 16.3212 28.3832 16.3197 28.3844L16.3177 28.3864L16.0004 28.6471L15.682 28.3864V28.3854L15.6801 28.3844C15.6786 28.3832 15.676 28.3808 15.6732 28.3785C15.6678 28.374 15.66 28.3675 15.6498 28.359C15.6289 28.3416 15.5978 28.3163 15.558 28.2828C15.4784 28.2159 15.3626 28.1169 15.2152 27.9899C14.9203 27.7356 14.4995 27.3669 13.9955 26.9059C12.9881 25.9843 11.6437 24.692 10.2972 23.2125C8.95245 21.7348 7.59578 20.0581 6.57263 18.3688C5.55632 16.6906 4.83347 14.9428 4.83337 13.3336C4.83337 7.16644 9.83319 2.16663 16.0004 2.16663ZM16.0004 11.1666C14.8037 11.1666 13.8334 12.137 13.8334 13.3336C13.8335 14.5301 14.8039 15.4996 16.0004 15.4996C17.1967 15.4995 18.1662 14.53 18.1664 13.3336C18.1664 12.1371 17.1968 11.1668 16.0004 11.1666Z" fill="white" stroke="black"/>
</svg>
