<svg width="24" height="24" viewBox="0 0 24 24" fill="none" xmlns="http://www.w3.org/2000/svg">
  <path
    d="M15.889 16.0606C17.8662 14.0834 19.0946 11.8311 19.5357 9.8465C19.9814 7.84119 19.5959 6.33243 18.7175 5.45401C17.839 4.5756 16.3303 4.1901 14.325 4.63573C12.3403 5.07684 10.0881 6.30523 8.11086 8.28244C6.13365 10.2596 4.90526 12.5119 4.46414 14.4966C4.01852 16.5019 4.40401 18.0106 5.28243 18.889L4.22177 19.9497C1.4881 17.216 2.75443 11.5175 7.05019 7.22178C11.346 2.92601 17.0444 1.65968 19.7781 4.39335C22.5118 7.12702 21.2455 12.8255 16.9497 17.1213C12.6539 21.417 6.95544 22.6834 4.22177 19.9497L5.28243 18.889C6.16084 19.7675 7.6696 20.1529 9.67491 19.7073C11.6596 19.2662 13.9118 18.0378 15.889 16.0606Z"
    fill="#898989" />
  <path
    d="M21 4.75C21 5.85457 20.1046 6.75 19 6.75C17.8954 6.75 17 5.85457 17 4.75C17 3.64543 17.8954 2.75 19 2.75C20.1046 2.75 21 3.64543 21 4.75Z"
    fill="#898989" />
  <path
    d="M6.5 19C6.5 20.1046 5.60457 21 4.5 21C3.39543 21 2.5 20.1046 2.5 19C2.5 17.8954 3.39543 17 4.5 17C5.60457 17 6.5 17.8954 6.5 19Z"
    fill="#898989" />
</svg>
