<svg width="20" height="20" viewBox="0 0 20 20" fill="none" xmlns="http://www.w3.org/2000/svg">
<path d="M3.5319 15.7389L6.87419 12.3975L7.60335 13.1258L4.26107 16.4689L8.33333 16.4714V17.5H2.5V11.6667H3.53516L3.5319 15.7389Z" fill="#C3C5C7"/>
<path d="M17.5 17.5H11.6667V16.4714L15.7389 16.4689L12.3966 13.1258L13.1258 12.3975L16.4681 15.7389L16.4648 11.6667H17.5V17.5Z" fill="#C3C5C7"/>
<path d="M8.33333 3.52865L4.26107 3.53109L7.60335 6.87419L6.87419 7.60254L3.5319 4.26107L3.53516 8.33333H2.5V2.5H8.33333V3.52865Z" fill="#C3C5C7"/>
<path d="M17.5 8.33333H16.4648L16.4681 4.26107L13.1258 7.60254L12.3966 6.87419L15.7389 3.53109L11.6667 3.52865V2.5H17.5V8.33333Z" fill="#C3C5C7"/>
</svg>
