<svg width="18" height="18" viewBox="0 0 18 18" fill="none" xmlns="http://www.w3.org/2000/svg">
  <path
    d="M18 18H0V0H18V18ZM1.5 16.5H11.2778V13.3433C9.78444 13.3429 9.77786 11.8554 9.77783 11.8433L2.69092 4.75488C2.18515 4.34088 1.79184 3.95658 1.5 3.64307V16.5ZM14.2778 2.84326C14.2778 2.85559 14.2716 4.34326 12.7778 4.34326H11.7788V5.84326C11.7788 5.85538 11.7722 7.34294 10.2788 7.34326H9.27832V9.34277H13.2788C14.764 9.34309 14.7787 10.8146 14.7788 10.8428V12.3428C15.0511 12.3441 16.1311 13.4713 16.5 13.7871V1.5H14.2778V2.84326Z"
    fill="#898989" />
</svg>
