<svg width="24" height="24" viewBox="0 0 24 24" fill="none" xmlns="http://www.w3.org/2000/svg">
<path d="M12.83 18.6667C12.83 18.6667 8.68977 16.0517 7.83 15.3334C7.86011 15.3609 6.15559 15.334 5.74666 15.3334C4.50121 15.3316 4.50073 14.0834 4.50073 14.0834C4.49943 12.612 4.49943 11.38804 4.50073 9.91671C4.50073 9.91671 4.50121 8.6685 5.74666 8.66671C6.24448 8.66599 7.83 8.66671 7.83 8.66671C9.54789 8.62592 11.39398 6.4281 12.83 5.33337C12.8242 9.77778 12.83 14.2223 12.83 18.6667Z" fill="white"/>
<path d="M18.739 10.16085L16.8884 12.0114L18.739 13.8612L17.9985 14.6018L16.1487 12.7512L14.2981 14.6018L13.5583 13.8612L15.4081 12.0114L13.5583 10.16085L14.2615 9.45772C14.5934 9.78962 16.1382 11.26091 16.1487 11.27087L17.9985 9.4211L18.739 10.16085Z" fill="white"/>
</svg>
