<svg width="24" height="24" viewBox="0 0 24 24" fill="none" xmlns="http://www.w3.org/2000/svg">
<path d="M13.6631 18.6667C13.6631 18.6667 9.52262 16.0516 8.66306 15.3334C8.69658 15.361 6.9888 15.334 6.57975 15.3334C5.33429 15.3316 5.33429 14.0834 5.33429 14.0834C5.33299 12.612 5.33299 11.38804 5.33429 9.91671C5.33429 9.91671 5.33429 8.6685 6.57975 8.66671C7.0774 8.66599 8.66308 8.66671 8.66308 8.66671C10.38101 8.62605 12.227 6.42813 13.6631 5.33337C13.6573 9.77778 13.6631 14.2223 13.6631 18.6667Z" fill="white"/>
<path d="M14.9166 7.00004C17.0796 7.61684 18.6666 9.50004 18.6666 11.99223V12C18.6666 14.5 17.0815 16.4607 14.9166 17L14.5 15.75C16.2039 15.3257 17.4166 13.8475 17.4166 12.0123C17.4166 10.22262 16.1397 8.71748 14.5 8.25004L14.9166 7.00004Z" fill="white"/>
<path d="M16.1667 12C16.1667 12.9205 15.4205 13.6667 14.5 13.6667C14.5 13.6667 14.5 12.9205 14.5 12C14.5 11.07957 14.5 10.33337 14.5 10.33337C15.4205 10.33337 16.1667 11.07957 16.1667 12Z" fill="white"/>
</svg>
