<svg width="24" height="24" viewBox="0 0 24 24" fill="none" xmlns="http://www.w3.org/2000/svg">
  <path
    d="M16.6214 3.74177L18.1865 3.02051L17.4647 4.58617L16.2928 7.16493C12.7303 7.70348 9.99959 10.7785 9.99959 14.4915C9.99959 15.9555 10.4242 17.3203 11.1569 18.4697L10.5699 19.7772L9.99029 18.3477L7.92772 13.2794L2.85989 11.2162L1.43036 10.6366L2.9636 9.94823L16.6214 3.74177Z"
    fill="#898989" />
  <path fill-rule="evenodd" clip-rule="evenodd"
    d="M17.4097 19.1228C19.9675 19.1228 22.041 17.0492 22.041 14.4915C22.041 11.9337 19.9675 9.86015 17.4097 9.86015C14.8519 9.86015 12.7784 11.9337 12.7784 14.4915C12.7784 17.0492 14.8519 19.1228 17.4097 19.1228ZM17.4097 20.5121C20.7348 20.5121 23.4304 17.8166 23.4304 14.4915C23.4304 11.1663 20.7348 8.47076 17.4097 8.47076C14.0845 8.47076 11.389 11.1663 11.389 14.4915C11.389 17.8166 14.0845 20.5121 17.4097 20.5121Z"
    fill="#898989" />
  <path fill-rule="evenodd" clip-rule="evenodd"
    d="M16.3188 11.0187L17.7082 11.0204L17.7042 14.3595L20.2578 16.7037L19.3182 17.7272L16.3141 14.9694L16.3188 11.0187Z"
    fill="#898989" />
</svg>
