<svg width="24" height="24" viewBox="0 0 24 24" fill="none" xmlns="http://www.w3.org/2000/svg">
  <path fill-rule="evenodd" clip-rule="evenodd"
    d="M12 19.5C16.1421 19.5 19.5 16.1421 19.5 12C19.5 7.85786 16.1421 4.5 12 4.5C7.85786 4.5 4.5 7.85786 4.5 12C4.5 16.1421 7.85786 19.5 12 19.5ZM12 21C16.9706 21 21 16.9706 21 12C21 7.02944 16.9706 3 12 3C7.02944 3 3 7.02944 3 12C3 16.9706 7.02944 21 12 21Z"
    fill="#898989" />
  <path d="M11.25 3H12.75V21H11.25V3Z" fill="#898989" />
  <path d="M20.625 11.25V12.75L3.48437 12.75L3.48438 11.25L20.625 11.25Z" fill="#898989" />
  <path d="M17.8336 5.10571L18.8943 6.16637L6.16637 18.8943L5.10571 17.8336L17.8336 5.10571Z"
    fill="#898989" />
  <path d="M18.8943 17.8336L17.8336 18.8943L5.1057 6.16637L6.16636 5.10571L18.8943 17.8336Z"
    fill="#898989" />
</svg>
