<svg width="16" height="16" viewBox="0 0 16 16" fill="none" xmlns="http://www.w3.org/2000/svg">
  <path d="M16 6.99988C15 6.99988 8.99999 6.99999 8.99999 6.99999C8.99999 6.99999 8.99999 0.999986 8.99999 -1.35601e-05L6.99999 -0.00012207C6.99999 0.999878 6.99999 6.99999 6.99999 6.99999C6.99999 6.99999 0.999878 6.99988 -0.00012207 6.99988L-1.35601e-05 8.99999C0.999986 8.99999 6.99999 8.99999 6.99999 8.99999C6.99999 8.99999 6.99999 14.9999 6.99999 15.9999H8.99999C8.99999 14.9999 8.99999 8.99999 8.99999 8.99999C8.99999 8.99999 15 8.99999 16 8.99999V6.99988Z" fill="#898989"/>
</svg>
